<?xml version="1.0" encoding="UTF-8"?>
<svg version="1.1" xmlns="http://www.w3.org/2000/svg" width="1291" height="1179">
<path d="M0 0 C1.35707314 -0.01007584 1.35707314 -0.01007584 2.74156189 -0.02035522 C5.72774778 -0.03932819 8.71370879 -0.04325918 11.69995117 -0.04541016 C13.78114412 -0.05183893 15.86233617 -0.05856735 17.94352722 -0.06558228 C22.30547175 -0.07755354 26.66733708 -0.08126328 31.02929688 -0.08007812 C36.60780665 -0.07987503 42.18580645 -0.10716837 47.76419544 -0.14162254 C52.06314915 -0.16390444 56.36198042 -0.16791525 60.66098595 -0.16685867 C62.71700484 -0.16921302 64.77302719 -0.17802712 66.82898903 -0.19352341 C69.71057033 -0.21320773 72.59105578 -0.20733545 75.47265625 -0.1953125 C76.73618423 -0.21217102 76.73618423 -0.21217102 78.02523804 -0.22937012 C83.78384554 -0.16858151 88.09598092 1.10740664 92.93041992 4.29052734 C94.97924805 6.41162109 94.97924805 6.41162109 96.46166992 8.72802734 C97.03143555 9.60974609 97.60120117 10.49146484 98.18823242 11.39990234 C101.00408428 16.07194354 103.76655094 20.76649887 106.43777466 25.52301025 C107.46325596 27.34899562 108.49474961 29.17146934 109.52783203 30.99316406 C110.60445204 32.89164159 111.68078793 34.79027095 112.75535583 36.68991089 C116.29863624 42.95253971 119.89140991 49.1862225 123.49291992 55.41552734 C124.73252222 57.56134972 125.97210554 59.70718306 127.21166992 61.85302734 C128.13012695 63.44244141 128.13012695 63.44244141 129.06713867 65.06396484 C130.95077042 68.32576742 132.83164313 71.58914578 134.71166992 74.85302734 C140.73481778 85.30765767 146.7757536 95.75094741 152.86791992 106.16552734 C158.60363882 115.97453204 164.25619277 125.82977875 169.88354492 135.70117188 C174.51833417 143.82987701 179.18426392 151.93986816 183.86791992 160.04052734 C202.20851891 191.77498198 202.20851891 191.77498198 200.93041992 203.29052734 C199.46810921 207.62544053 197.27550639 211.37418576 194.93041992 215.29052734 C194.22974355 216.49541004 193.5305971 217.70118337 192.83276367 218.90771484 C191.20054906 221.71314936 189.54875705 224.506137 187.88745117 227.29443359 C185.07850903 232.0209726 182.32746384 236.77972335 179.5847168 241.54492188 C178.31131231 243.75705403 177.03525285 245.9676599 175.7565918 248.17675781 C172.50876136 253.79014048 169.29338881 259.41787952 166.13745117 265.08349609 C165.52482422 266.16880615 164.91219727 267.25411621 164.28100586 268.37231445 C163.12313273 270.42388731 161.97834396 272.48292292 160.84936523 274.55053711 C156.93154292 281.44015061 152.64530846 286.71889783 144.93041992 289.29052734 C143.22827881 289.40586924 141.52220583 289.46693775 139.81640625 289.49584961 C138.77555374 289.51579483 137.73470123 289.53574005 136.66230774 289.55628967 C135.54035507 289.57300217 134.4184024 289.58971466 133.26245117 289.60693359 C132.11250168 289.62771469 130.96255219 289.64849579 129.77775574 289.66990662 C126.09953867 289.73536076 122.42124945 289.79426809 118.74291992 289.85302734 C116.25137596 289.89621648 113.75983933 289.9398309 111.26831055 289.98388672 C105.15575691 290.09103796 99.04313129 290.19281218 92.93041992 290.29052734 C99.62159135 302.19195156 106.34909297 314.06747288 113.24291992 325.85302734 C114.12125488 327.35567139 114.12125488 327.35567139 115.01733398 328.88867188 C117.11820555 332.48207982 119.21936475 336.07531932 121.3215332 339.66796875 C122.48737204 341.66456309 123.64754899 343.66430523 124.80541992 345.66552734 C125.4215918 346.72513672 126.03776367 347.78474609 126.67260742 348.87646484 C127.93041992 351.29052734 127.93041992 351.29052734 127.93041992 353.29052734 C147.73041992 353.29052734 167.53041992 353.29052734 187.93041992 353.29052734 C188.59041992 351.64052734 189.25041992 349.99052734 189.93041992 348.29052734 C190.53594128 347.08380977 191.16563554 345.88886127 191.82104492 344.70849609 C192.19318115 344.03689453 192.56531738 343.36529297 192.94873047 342.67333984 C193.35518799 341.94888672 193.76164551 341.22443359 194.18041992 340.47802734 C194.61588135 339.69814453 195.05134277 338.91826172 195.5 338.11474609 C200.30287407 329.55698892 205.2683598 321.09435017 210.22729492 312.62646484 C213.96676582 306.23770743 217.67167026 299.82936658 221.36791992 293.41552734 C221.99013428 292.3359375 222.61234863 291.25634766 223.25341797 290.14404297 C224.51553509 287.95370214 225.77749777 285.76327232 227.03930664 283.57275391 C230.1672214 278.14392792 233.2990044 272.71733453 236.43041992 267.29052734 C237.68043871 265.12387152 238.93043871 262.95720485 240.18041992 260.79052734 C307.68041992 143.79052734 307.68041992 143.79052734 309.55834961 140.53564453 C310.79880978 138.38538415 312.03904695 136.2349951 313.27905273 134.08447266 C316.19872654 129.02155225 319.12060468 123.95994403 322.05053711 118.9029541 C323.42960023 116.52240562 324.80737777 114.14111428 326.18505859 111.75976562 C327.15426651 110.08570084 328.12532558 108.41270823 329.09643555 106.73974609 C329.68618164 105.72009766 330.27592773 104.70044922 330.88354492 103.64990234 C331.65939941 102.31137207 331.65939941 102.31137207 332.45092773 100.94580078 C332.93916016 100.06956055 333.42739258 99.19332031 333.93041992 98.29052734 C334.83763794 96.80093506 334.83763794 96.80093506 335.76318359 95.28125 C337.2371475 92.38774598 337.2371475 92.38774598 336.20800781 89.6953125 C335.69488037 88.83212402 335.18175293 87.96893555 334.65307617 87.07958984 C334.08282715 86.09289307 333.51257813 85.10619629 332.92504883 84.08959961 C331.96864502 82.51843384 331.96864502 82.51843384 330.99291992 80.91552734 C330.35789551 79.82876709 329.72287109 78.74200684 329.06860352 77.62231445 C327.38589271 74.74945916 325.68406077 71.8898769 323.97210693 69.03448486 C321.59764216 65.05923544 319.26754196 61.05784449 316.93212891 57.05957031 C315.69529769 54.94632182 314.45147227 52.83714908 313.20019531 50.73242188 C312.63937256 49.78351074 312.0785498 48.83459961 311.50073242 47.85693359 C311.00331543 47.02105713 310.50589844 46.18518066 309.9934082 45.32397461 C308.93041992 43.29052734 308.93041992 43.29052734 308.93041992 41.29052734 C288.80041992 41.29052734 268.67041992 41.29052734 247.93041992 41.29052734 C247.27041992 42.94052734 246.61041992 44.59052734 245.93041992 46.29052734 C245.03666735 48.00986778 244.11251859 49.71361776 243.16479492 51.40380859 C242.61194824 52.3916333 242.05910156 53.37945801 241.48950195 54.3972168 C240.59400635 55.98409302 240.59400635 55.98409302 239.68041992 57.60302734 C239.05635254 58.71315186 238.43228516 59.82327637 237.78930664 60.96704102 C233.04833495 69.37354681 228.21229718 77.72241255 223.32836914 86.04663086 C219.10773642 93.24656824 214.95687559 100.48426196 210.83108521 107.73873901 C207.87622116 112.92955482 204.90475893 118.11085088 201.93041992 123.29052734 C201.32794434 124.34111328 200.72546875 125.39169922 200.10473633 126.47412109 C198.45527582 129.3373008 196.79002367 132.19052748 195.11791992 135.04052734 C194.63242676 135.88647461 194.14693359 136.73242188 193.64672852 137.60400391 C193.19765137 138.36165039 192.74857422 139.11929688 192.28588867 139.89990234 C191.90070068 140.55958008 191.5155127 141.21925781 191.11865234 141.89892578 C190.72653564 142.3581543 190.33441895 142.81738281 189.93041992 143.29052734 C188.94041992 143.29052734 187.95041992 143.29052734 186.93041992 143.29052734 C186.54821289 142.60128174 186.16600586 141.91203613 185.7722168 141.2019043 C183.99467741 138.0005687 182.21267821 134.80173811 180.43041992 131.60302734 C179.4771582 129.88539185 179.4771582 129.88539185 178.50463867 128.13305664 C174.49682419 120.93809342 174.49682419 120.93809342 170.14916992 113.94677734 C169.76567383 113.3624292 169.38217773 112.77808105 168.98706055 112.17602539 C168.00784667 110.71829087 167.00147163 109.27890145 165.99291992 107.84130859 C164.93041992 105.29052734 164.93041992 105.29052734 165.35620117 102.63037109 C167.65403198 97.75532062 170.35802221 93.16647735 173.11791992 88.54052734 C174.3946177 86.37685186 175.67063663 84.21277569 176.94604492 82.04833984 C177.93507813 80.37433105 177.93507813 80.37433105 178.9440918 78.66650391 C182.11967418 73.26926286 185.24408268 67.84282924 188.36791992 62.41552734 C188.98513916 61.34488037 189.6023584 60.2742334 190.23828125 59.17114258 C193.4606596 53.58137078 196.6789276 47.98924638 199.89526367 42.39599609 C203.02145832 36.96139389 206.15647416 31.531989 209.30004883 26.10742188 C210.32344602 24.33923428 211.3443395 22.56959271 212.36157227 20.79785156 C213.56313291 18.70674772 214.77581698 16.62261037 215.99291992 14.54052734 C216.62327148 13.45255859 217.25362305 12.36458984 217.90307617 11.24365234 C221.45855395 6.06457488 224.83098124 2.22074934 230.93041992 0.29052734 C233.95357594 -0.00789707 236.96394126 -0.00324342 240 0 C241.35707314 -0.01007584 241.35707314 -0.01007584 242.74156189 -0.02035522 C245.72774778 -0.03932819 248.71370879 -0.04325918 251.69995117 -0.04541016 C253.78114412 -0.05183893 255.86233617 -0.05856735 257.94352722 -0.06558228 C262.30547175 -0.07755354 266.66733708 -0.08126328 271.02929688 -0.08007812 C276.60780665 -0.07987503 282.18580645 -0.10716837 287.76419544 -0.14162254 C292.06314915 -0.16390444 296.36198042 -0.16791525 300.66098595 -0.16685867 C302.71700484 -0.16921302 304.77302719 -0.17802712 306.82898903 -0.19352341 C309.71057033 -0.21320773 312.59105578 -0.20733545 315.47265625 -0.1953125 C316.73618423 -0.21217102 316.73618423 -0.21217102 318.02523804 -0.22937012 C324.44337203 -0.16161946 329.74045006 1.40926174 334.58036518 5.78080177 C339.62973059 11.08542037 342.89779993 17.87816959 346.43041992 24.22802734 C347.49066112 26.11276657 348.55376539 27.99587213 349.61700439 29.87892151 C350.33739709 31.15515427 351.05691804 32.43187949 351.77557373 33.70909119 C355.1791077 39.75344355 358.67082542 45.74469898 362.18041992 51.72802734 C366.72880641 59.50394526 371.25773538 67.29045229 375.74291992 75.10302734 C376.25306641 75.98724365 376.76321289 76.87145996 377.28881836 77.7824707 C377.9873291 79.00268921 377.9873291 79.00268921 378.69995117 80.24755859 C379.10834229 80.95887939 379.5167334 81.6702002 379.9375 82.40307617 C382.63998792 87.54026184 382.616282 92.63998343 381.93041992 98.29052734 C380.80151367 101.11645508 380.80151367 101.11645508 379.30541992 103.97412109 C378.75877686 105.01995361 378.21213379 106.06578613 377.64892578 107.14331055 C375.02074642 111.95647438 372.28953505 116.69852955 369.49291992 121.41552734 C368.25273756 123.52455021 367.01317555 125.63393796 365.77416992 127.74365234 C365.13995117 128.82195312 364.50573242 129.90025391 363.85229492 131.01123047 C360.70557884 136.38047467 357.59883373 141.77260926 354.49291992 147.16552734 C353.56008179 148.78418701 353.56008179 148.78418701 352.60839844 150.43554688 C351.34592261 152.62635685 350.08363437 154.81727494 348.8215332 157.00830078 C345.69361844 162.43712677 342.56183544 167.86372016 339.43041992 173.29052734 C338.18040113 175.45718317 336.93040114 177.62384984 335.68041992 179.79052734 C328.18041992 192.79052734 320.68041992 205.79052734 313.18041992 218.79052734 C312.56158936 219.86318848 311.94275879 220.93584961 311.30517578 222.04101562 C310.05606474 224.20609805 308.80687863 226.37113717 307.55761719 228.53613281 C304.41839683 233.9766844 301.28051429 239.4179995 298.14526367 244.86083984 C292.12294664 255.31258934 286.08372655 265.75352282 279.99291992 276.16552734 C274.91766869 284.84314976 269.90783226 293.55658302 264.93041992 302.29052734 C259.39332767 312.00655088 253.80299158 321.68948941 248.15576172 331.34204102 C244.47521656 337.63532854 240.81460744 343.93965317 237.1730957 350.25561523 C235.89731932 352.46813357 234.61968204 354.67958003 233.34008789 356.88989258 C230.45791336 361.87344809 227.59996584 366.8657529 224.82104492 371.90771484 C224.33982178 372.76969482 223.85859863 373.6316748 223.36279297 374.51977539 C222.48941677 376.08705841 221.62760675 377.66088253 220.78125 379.24291992 C217.37038853 385.32120515 212.71349039 391.02950385 205.93041992 393.29052734 C202.914553 393.40798827 199.92098033 393.4687002 196.90429688 393.48339844 C195.98036636 393.49157593 195.05643585 393.49975342 194.10450745 393.50817871 C191.0425786 393.53301854 187.98069611 393.54954634 184.91870117 393.56396484 C183.87231161 393.56928852 182.82592205 393.5746122 181.74782372 393.5800972 C176.20786649 393.60682432 170.66793175 393.62619951 165.12792969 393.640625 C160.54667165 393.65395892 155.96585958 393.6818025 151.38476562 393.72265625 C145.85047754 393.7720101 140.31659372 393.79674974 134.78209496 393.80385208 C132.6758095 393.81055897 130.56953285 393.82576631 128.46337318 393.84974289 C125.50961195 393.8814465 122.55740312 393.88142303 119.60351562 393.87402344 C118.73932007 393.89042877 117.87512451 393.90683411 116.98474121 393.92373657 C110.79449475 393.86050948 106.75614645 392.16888747 101.93041992 388.29052734 C98.87169112 385.01210543 96.72837875 381.41822564 94.53198242 377.52099609 C93.89510498 376.39741699 93.25822754 375.27383789 92.60205078 374.11621094 C92.26881805 373.52378601 91.93558533 372.93136108 91.59225464 372.32098389 C89.81164763 369.1559844 88.01640763 365.99928737 86.22338867 362.84130859 C85.86034134 362.2009668 85.49729401 361.560625 85.12324524 360.90087891 C81.75252662 354.96109701 78.31956014 349.05863204 74.86791992 343.16552734 C68.13764973 331.66220575 61.47385944 320.12128828 54.8215332 308.57275391 C51.69361844 303.14392792 48.56183544 297.71733453 45.43041992 292.29052734 C44.18040113 290.12387152 42.93040114 287.95720485 41.68041992 285.79052734 C41.06166992 284.71802734 40.44291992 283.64552734 39.80541992 282.54052734 C37.93041992 279.29052734 36.05541992 276.04052734 34.18041992 272.79052734 C33.56142822 271.71762451 32.94243652 270.64472168 32.3046875 269.53930664 C31.05707252 267.37674151 29.80951376 265.21414395 28.56201172 263.05151367 C25.40098543 257.57182363 22.23892683 252.09273377 19.07495117 246.61474609 C15.95290171 241.20926489 12.83612352 235.8007647 9.72045898 230.39160156 C7.95002106 227.32448448 6.17135536 224.26226017 4.39135742 221.20068359 C3.30005294 219.31405661 2.20889914 217.42734244 1.11791992 215.54052734 C0.6201001 214.68934326 0.12228027 213.83815918 -0.390625 212.96118164 C-4.42713342 205.95684053 -7.70591375 199.48521909 -5.52270508 191.22021484 C-2.9717953 184.12098479 1.03993031 177.78550611 4.90698242 171.34912109 C8.38427945 165.55943315 11.74976649 159.70666975 15.11791992 153.85302734 C15.74786865 152.76151367 16.37781738 151.67 17.02685547 150.54541016 C20.0385935 145.32521594 23.0422742 140.10089923 26.0216217 134.86216736 C27.04055014 133.07151328 28.06188579 131.28225436 29.08398438 129.4934082 C30.36732858 127.24568844 31.64605828 124.99532566 32.91943359 122.74194336 C38.01880236 113.82772591 41.75780589 107.51611007 51.93041992 104.29052734 C55.94758035 103.73075184 59.91367762 103.68580884 63.96557617 103.68115234 C65.64447182 103.65634796 65.64447182 103.65634796 67.35728455 103.63104248 C70.90255341 103.58278541 74.44739399 103.56124029 77.99291992 103.54052734 C80.40895684 103.51234915 82.82497399 103.48241916 85.2409668 103.45068359 C91.13737399 103.37703241 97.03366185 103.32525959 102.93041992 103.29052734 C102.29555664 102.21416016 101.66069336 101.13779297 101.0065918 100.02880859 C95.76906552 91.14162883 90.56947853 82.2350781 85.43041992 73.29052734 C80.13381015 64.07667173 80.13381015 64.07667173 74.74682617 54.91552734 C74.27631836 54.12404297 73.80581055 53.33255859 73.32104492 52.51708984 C72.45908208 51.0720345 71.59340913 49.62918333 70.72338867 48.18896484 C67.93041992 43.50833446 67.93041992 43.50833446 67.93041992 41.29052734 C60.35132946 40.86175206 52.7766188 40.56811302 45.18670464 40.43818665 C41.65860091 40.37372236 38.14381951 40.26617122 34.62133789 40.05273438 C19.03164176 38.67750102 19.03164176 38.67750102 5.34188843 44.53765869 C0.79710385 50.27240383 -2.13343377 56.66812468 -4.87402344 63.41516113 C-6.3593589 66.98745813 -8.16608119 70.11466554 -10.19067383 73.40771484 C-11.29675316 75.32663386 -12.40223735 77.24589607 -13.50708008 79.16552734 C-14.76617809 81.35043272 -16.02529318 83.53532827 -17.28442383 85.72021484 C-18.2219751 87.34781738 -18.2219751 87.34781738 -19.1784668 89.00830078 C-22.30638156 94.43712677 -25.43816456 99.86372016 -28.56958008 105.29052734 C-29.81959887 107.45718317 -31.06959886 109.62384984 -32.31958008 111.79052734 C-39.81958008 124.79052734 -47.31958008 137.79052734 -54.81958008 150.79052734 C-55.43841064 151.86318848 -56.05724121 152.93584961 -56.69482422 154.04101562 C-57.94393526 156.20609805 -59.19312137 158.37113717 -60.44238281 160.53613281 C-63.58160317 165.9766844 -66.71948571 171.4179995 -69.85473633 176.86083984 C-75.87705336 187.31258934 -81.91627345 197.75352282 -88.00708008 208.16552734 C-93.08233131 216.84314976 -98.09216774 225.55658302 -103.06958008 234.29052734 C-108.04699597 243.02447791 -113.0574351 251.73754579 -118.13208008 260.41552734 C-119.26229185 262.35042117 -120.39250016 264.28531701 -121.52270508 266.22021484 C-123.38687888 269.41126661 -125.25177541 272.60189021 -127.1184082 275.79150391 C-128.87225216 278.7897088 -130.62058135 281.79107694 -132.36569214 284.79437256 C-133.36059549 286.50361682 -134.36066233 288.20985223 -135.36083984 289.91601562 C-135.96210693 290.95226074 -136.56337402 291.98850586 -137.18286133 293.05615234 C-137.71693604 293.97170898 -138.25101074 294.88726563 -138.80126953 295.83056641 C-140.4462441 298.92249172 -140.4462441 298.92249172 -141.06958008 302.29052734 C-139.93215623 305.09140725 -139.93215623 305.09140725 -138.12426758 308.03271484 C-137.79854767 308.59636749 -137.47282776 309.16002014 -137.13723755 309.74075317 C-136.08445683 311.55596208 -135.01492105 313.36062914 -133.94458008 315.16552734 C-132.93896343 316.89534541 -131.93341523 318.6252089 -130.93251038 320.35775757 C-130.21516346 321.57788757 -129.4809803 322.78824578 -128.73191833 323.98916626 C-126.31267148 327.91213032 -124.41058424 331.80128862 -122.67919922 336.07714844 C-119.99334708 342.21652194 -117.33271443 347.96341497 -112.06958008 352.29052734 C-103.131829 355.68584157 -93.21945606 354.78007602 -83.82678223 354.26470947 C-80.35522563 354.09834912 -76.88230279 354.0596663 -73.4074707 354.00927734 C-66.6216792 353.89251369 -59.84742371 353.63715793 -53.06958008 353.29052734 C-52.76964645 352.52173752 -52.46971283 351.75294769 -52.16069031 350.96086121 C-50.95500443 348.01012008 -49.49070457 345.35458408 -47.90161133 342.59130859 C-47.26336426 341.47788086 -46.62511719 340.36445312 -45.9675293 339.21728516 C-45.27247375 338.01247821 -44.57732148 336.80772706 -43.88208008 335.60302734 C-43.16063258 334.34764062 -42.43944514 333.09210442 -41.71850586 331.83642578 C-39.86455068 328.60932442 -38.00656543 325.38456321 -36.1473999 322.16046143 C-35.12191137 320.38131809 -34.09763136 318.60148685 -33.07397461 316.82128906 C-25.8147427 304.19710368 -18.50822695 291.60144797 -11.15844727 279.02978516 C-5.39304012 269.1561533 0.27975578 259.23017421 5.93041992 249.29052734 C9.80110604 250.58075605 10.089419 251.86566465 12.00463867 255.39990234 C12.58665039 256.45910889 13.16866211 257.51831543 13.76831055 258.60961914 C14.37868164 259.74181885 14.98905273 260.87401855 15.61791992 262.04052734 C20.06031529 270.18702879 24.53742212 278.14163733 29.86791992 285.73974609 C30.93041992 288.29052734 30.93041992 288.29052734 30.37963867 291.16943359 C28.70893687 294.76752184 26.80415432 298.15766096 24.74291992 301.54052734 C23.83543587 303.05671649 22.92927187 304.57369622 22.02416992 306.09130859 C21.52916992 306.91969238 21.03416992 307.74807617 20.52416992 308.6015625 C17.55139624 313.61720731 14.65111121 318.67475777 11.74291992 323.72802734 C11.10733154 324.83082031 10.47174316 325.93361328 9.81689453 327.06982422 C6.57201606 332.70039219 3.33076185 338.33303918 0.09057617 343.96630859 C-2.40762544 348.30894081 -4.91343131 352.64704823 -7.42504883 356.98193359 C-9.84796549 361.16380387 -12.24291876 365.3600023 -14.62036133 369.56787109 C-15.74883919 371.5381686 -16.87772621 373.50823183 -18.00708008 375.47802734 C-18.50224121 376.36844727 -18.99740234 377.25886719 -19.50756836 378.17626953 C-23.2279823 384.6097696 -27.77225943 390.85808713 -35.06958008 393.29052734 C-38.085447 393.40798827 -41.07901967 393.4687002 -44.09570312 393.48339844 C-45.01963364 393.49157593 -45.94356415 393.49975342 -46.89549255 393.50817871 C-49.9574214 393.53301854 -53.01930389 393.54954634 -56.08129883 393.56396484 C-57.12768839 393.56928852 -58.17407795 393.5746122 -59.25217628 393.5800972 C-64.79213351 393.60682432 -70.33206825 393.62619951 -75.87207031 393.640625 C-80.45332835 393.65395892 -85.03414042 393.6818025 -89.61523438 393.72265625 C-95.14952246 393.7720101 -100.68340628 393.79674974 -106.21790504 393.80385208 C-108.3241905 393.81055897 -110.43046715 393.82576631 -112.53662682 393.84974289 C-115.49038805 393.8814465 -118.44259688 393.88142303 -121.39648438 393.87402344 C-122.26067993 393.89042877 -123.12487549 393.90683411 -124.01525879 393.92373657 C-130.20535109 393.86051105 -134.24111457 392.16541606 -139.06958008 388.29052734 C-141.15136719 386.0234375 -141.15136719 386.0234375 -142.65942383 383.70458984 C-143.22902832 382.8322168 -143.79863281 381.95984375 -144.38549805 381.06103516 C-147.26178222 376.32921828 -149.97735085 371.52462651 -152.63208008 366.66552734 C-157.41137673 358.02402317 -162.26458084 349.43575579 -167.25708008 340.91552734 C-168.11994629 339.44152466 -168.11994629 339.44152466 -169.00024414 337.93774414 C-170.13449537 336.00148894 -171.26925107 334.06552916 -172.40454102 332.12988281 C-175.07071297 327.58331685 -177.73023404 323.0329629 -180.38208008 318.47802734 C-180.84445068 317.68928223 -181.30682129 316.90053711 -181.78320312 316.08789062 C-182.20384033 315.36456543 -182.62447754 314.64124023 -183.05786133 313.89599609 C-183.42435791 313.26846436 -183.79085449 312.64093262 -184.16845703 311.99438477 C-186.96710941 306.70264947 -186.84961739 301.09453376 -186.06958008 295.29052734 C-184.24964246 290.32385888 -181.73086629 285.84035341 -179.06958008 281.29052734 C-178.53929199 280.36989502 -178.53929199 280.36989502 -177.99829102 279.43066406 C-176.02263719 276.00637399 -174.01389263 272.60300397 -171.98754883 269.20849609 C-168.56088697 263.45689716 -165.22254591 257.65497958 -161.88208008 251.85302734 C-161.24463867 250.74668945 -160.60719727 249.64035156 -159.95043945 248.50048828 C-158.64178378 246.22897057 -157.33335458 243.95732238 -156.02514648 241.68554688 C-152.87625954 236.21882755 -149.72274744 230.75477847 -146.56958008 225.29052734 C-145.31955658 223.12387423 -144.06955661 220.95720755 -142.81958008 218.79052734 C-135.31958008 205.79052734 -127.81958008 192.79052734 -120.31958008 179.79052734 C-119.70074951 178.71786621 -119.08191895 177.64520508 -118.44433594 176.54003906 C-117.1952249 174.37495664 -115.94603879 172.20991752 -114.69677734 170.04492188 C-111.55755698 164.60437029 -108.41967445 159.16305519 -105.28442383 153.72021484 C-99.26210679 143.26846535 -93.22288671 132.82753186 -87.13208008 122.41552734 C-82.05682885 113.73790493 -77.04699241 105.02447167 -72.06958008 96.29052734 C-66.53037383 86.57079434 -60.93811915 76.88403048 -55.28833008 67.22802734 C-51.65948572 61.02360864 -48.05205102 54.80741147 -44.46435547 48.57910156 C-43.20882745 46.40000577 -41.95152439 44.22193165 -40.69238281 42.04492188 C-37.51756157 36.55448013 -34.36722285 31.05227106 -31.25708008 25.52490234 C-30.02797163 23.3634109 -28.79880711 21.20195135 -27.56958008 19.04052734 C-27.01850586 18.04666016 -26.46743164 17.05279297 -25.8996582 16.02880859 C-19.44934928 4.75445045 -13.03901315 -0.01392958 0 0 Z M61.56323242 153.09912109 C60.53224034 155.39851496 59.62045951 157.69902664 58.77416992 160.07241821 C57.49242042 163.44197112 55.69227692 166.31488808 53.81323242 169.39208984 C52.55987001 171.56613205 51.3072507 173.74060285 50.05541992 175.91552734 C49.41862305 177.02025391 48.78182617 178.12498047 48.12573242 179.26318359 C46.91599576 181.36258075 45.71028811 183.46430716 44.50952148 185.56884766 C43.55685621 187.21082547 42.58095295 188.84004607 41.56225586 190.44189453 C39.42565306 193.77151705 39.42565306 193.77151705 39.13867188 197.61108398 C40.07728943 200.78756493 41.44922958 203.33097297 43.10620117 206.20068359 C43.5940937 207.05115517 43.5940937 207.05115517 44.09184265 207.91880798 C45.1356949 209.73405701 46.18928885 211.54344084 47.24291992 213.35302734 C48.24657352 215.09773511 49.24834739 216.84347264 50.24734497 218.59085083 C50.95429228 219.80517876 51.67788213 221.00994671 52.41647339 222.20529175 C54.69277113 225.92466008 56.48065423 229.57493679 58.06958008 233.640625 C60.49635253 239.32122448 62.90449857 244.49416303 67.93041992 248.29052734 C77.0466173 251.32582386 87.10769674 250.27491383 96.56811523 249.66381836 C100.10575275 249.45733351 103.64627863 249.36750402 107.18823242 249.26708984 C114.10935725 249.05402601 121.01904989 248.71388404 127.93041992 248.29052734 C132.34523254 240.63015096 132.34523254 240.63015096 136.75317383 232.96582031 C140.14757288 227.06762754 143.57314781 221.19365855 147.07885742 215.36083984 C147.7264502 214.27609375 148.37404297 213.19134766 149.04125977 212.07373047 C150.28408475 209.99603804 151.5367718 207.92420774 152.80004883 205.85888672 C153.35869629 204.92109375 153.91734375 203.98330078 154.49291992 203.01708984 C154.98920898 202.19805176 155.48549805 201.37901367 155.99682617 200.53515625 C157.1204957 197.8335303 157.01810522 196.97035048 155.93041992 194.29052734 C155.08787483 192.5945972 154.19192281 190.92479438 153.26245117 189.27490234 C152.69719727 188.26814453 152.13194336 187.26138672 151.54956055 186.22412109 C150.95336914 185.17353516 150.35717773 184.12294922 149.74291992 183.04052734 C149.19700195 182.06728516 148.65108398 181.09404297 148.08862305 180.09130859 C146.84699097 177.88854604 145.56848102 175.70636797 144.26391602 173.5402832 C142.3178507 170.19020133 140.85503967 166.7491043 139.38208008 163.16772461 C134.39651608 151.52464324 134.39651608 151.52464324 124.81216431 143.92144775 C116.50740692 141.93137909 108.19292488 142.21655869 99.73828125 142.65167236 C96.98691114 142.75375933 94.24670519 142.70210777 91.49456215 142.65304565 C73.73758316 142.04959857 73.73758316 142.04959857 61.56323242 153.09912109 Z " fill="#12B1CF" transform="translate(546.069580078125,396.70947265625)"/>
</svg>
