<?xml version="1.0" encoding="UTF-8"?>
<svg version="1.1" xmlns="http://www.w3.org/2000/svg" width="200" height="200">
<path d="M0 0 C3.62107355 2.11336677 7.1864135 4.33958896 10.1953125 7.28125 C10.1953125 7.94125 10.1953125 8.60125 10.1953125 9.28125 C10.8553125 9.28125 11.5153125 9.28125 12.1953125 9.28125 C16.78607816 14.8164916 19.77343936 21.2794349 22.5703125 27.84375 C25.7654811 35.1620932 29.13217243 42.34234121 32.80810547 49.43188477 C35.1953125 54.08101018 35.1953125 54.08101018 35.1953125 56.28125 C40.1453125 56.28125 45.0953125 56.28125 50.1953125 56.28125 C50.10507813 58.18261719 50.01484375 60.08398438 49.921875 62.04296875 C49.47855515 82.03875598 53.70724285 95.71996537 63.41992188 113.05224609 C65.98410352 117.71586909 68.221322 122.51121186 70.4453125 127.34375 C72.86018301 132.50862492 72.86018301 132.50862492 75.390625 137.6171875 C78.64437165 144.34580922 78.12760816 154.13605875 75.8828125 161.09375 C74.55434012 164.61103878 72.97873854 167.96917306 71.1953125 171.28125 C70.5353125 171.28125 69.8753125 171.28125 69.1953125 171.28125 C68.94652344 171.88582031 68.69773438 172.49039063 68.44140625 173.11328125 C66.99733795 175.62568848 65.73395437 176.50704242 63.2578125 177.96875 C62.56816406 178.38511719 61.87851563 178.80148438 61.16796875 179.23046875 C57.48614607 181.19167727 54.53955311 181.41328759 50.43504333 181.43515015 C48.63307747 181.44805084 48.63307747 181.44805084 46.79470825 181.46121216 C45.46136518 181.46564732 44.12802165 181.46994569 42.79467773 181.47412109 C41.39175718 181.48202414 39.98883865 181.49029322 38.58592224 181.49890137 C33.97526995 181.52510728 29.36460866 181.54043176 24.75390625 181.5546875 C23.16455645 181.56004856 21.5752067 181.56542607 19.98585701 181.57081985 C13.3709908 181.59245022 6.75612702 181.611184 0.1412344 181.62244225 C-9.32514003 181.63866123 -18.79110268 181.67178693 -28.25732189 181.72884309 C-34.91990389 181.76762437 -41.58237615 181.78708483 -48.24506801 181.79236281 C-52.22052262 181.79600631 -56.19553791 181.80791916 -60.17086983 181.84046555 C-63.91634275 181.8706895 -67.66111389 181.8768078 -71.40668297 181.86508179 C-73.42298357 181.86475818 -75.43924177 181.88913035 -77.4553833 181.91445923 C-86.29615393 181.85423088 -93.30190301 180.44686515 -99.94167423 174.30428123 C-107.16776888 166.68681259 -109.11919723 158.3880446 -108.94140625 148.08984375 C-108.51009622 139.22950338 -105.04085938 132.36169897 -101.015625 124.59375 C-98.46595146 119.66870138 -96.10716779 114.66048506 -93.8215332 109.60791016 C-92.24733661 106.16743806 -90.63071858 102.91152966 -88.55859375 99.7421875 C-80.29057283 86.54822793 -81.65330804 71.34350585 -81.8046875 56.28125 C-76.8546875 56.28125 -71.9046875 56.28125 -66.8046875 56.28125 C-66.1446875 54.30125 -65.4846875 52.32125 -64.8046875 50.28125 C-63.81088777 48.06149865 -62.78082157 45.85776785 -61.72265625 43.66796875 C-61.2785717 42.74719292 -61.2785717 42.74719292 -60.82551575 41.80781555 C-60.2011049 40.51531536 -59.57491084 39.22367526 -58.94702148 37.93286133 C-58.00095785 35.98679077 -57.06157833 34.0376029 -56.12304688 32.08789062 C-48.52222301 16.35755326 -48.52222301 16.35755326 -43.8046875 9.28125 C-43.1446875 9.28125 -42.4846875 9.28125 -41.8046875 9.28125 C-41.57265625 8.68570312 -41.340625 8.09015625 -41.1015625 7.4765625 C-39.47272463 4.71931285 -37.81427212 3.75346413 -35.0546875 2.15625 C-34.21421875 1.65867187 -33.37375 1.16109375 -32.5078125 0.6484375 C-22.71533681 -4.30440425 -10.00153306 -4.74649026 0 0 Z M-21.8046875 31.28125 C-23.01233653 32.96694229 -23.01233653 32.96694229 -23.83984375 34.984375 C-24.17435547 35.71785156 -24.50886719 36.45132813 -24.85351562 37.20703125 C-25.18802734 37.97402344 -25.52253906 38.74101563 -25.8671875 39.53125 C-26.54502887 41.03670341 -27.22340507 42.54191614 -27.90234375 44.046875 C-28.22219238 44.76810547 -28.54204102 45.48933594 -28.87158203 46.23242188 C-29.7131728 48.08031034 -30.62787483 49.89447618 -31.55078125 51.703125 C-32.95047963 54.10319594 -32.95047963 54.10319594 -32.8046875 56.28125 C-21.5846875 56.28125 -10.3646875 56.28125 1.1953125 56.28125 C-0.40011954 50.50481807 -0.40011954 50.50481807 -2.64453125 45.203125 C-3.1559668 44.17445312 -3.1559668 44.17445312 -3.67773438 43.125 C-4.02900391 42.4340625 -4.38027344 41.743125 -4.7421875 41.03125 C-5.08958984 40.32484375 -5.43699219 39.6184375 -5.79492188 38.890625 C-6.30829102 37.8696875 -6.30829102 37.8696875 -6.83203125 36.828125 C-7.13874756 36.21807617 -7.44546387 35.60802734 -7.76147461 34.97949219 C-9.69835583 31.82645082 -11.1395941 30.465212 -14.7421875 29.46875 C-18.04307636 29.26665476 -19.08507327 29.53471504 -21.8046875 31.28125 Z M-48.8046875 88.28125 C-54.1484229 97.97346922 -59.05932427 107.83238164 -63.78173828 117.84204102 C-65.8109624 122.13819429 -67.84407683 126.41886912 -70.0625 130.62109375 C-70.39306396 131.25136475 -70.72362793 131.88163574 -71.06420898 132.53100586 C-71.91803756 134.14139709 -72.78833458 135.74302825 -73.66015625 137.34375 C-75.03289641 140.86696025 -75.15177989 143.5308491 -74.8046875 147.28125 C-74.1446875 147.94125 -73.4846875 148.60125 -72.8046875 149.28125 C-63.2346875 149.28125 -53.6646875 149.28125 -43.8046875 149.28125 C-43.8046875 129.15125 -43.8046875 109.02125 -43.8046875 88.28125 C-45.4546875 88.28125 -47.1046875 88.28125 -48.8046875 88.28125 Z M12.1953125 88.28125 C12.1953125 108.41125 12.1953125 128.54125 12.1953125 149.28125 C21.7653125 149.28125 31.3353125 149.28125 41.1953125 149.28125 C43.51948028 147.37481439 43.51948028 147.37481439 43.5390625 144.1171875 C43.14871828 139.76130087 41.76002393 136.6675166 39.6953125 132.90625 C38.95371536 131.49324259 38.214197 130.07914257 37.4765625 128.6640625 C37.09628906 127.9412207 36.71601563 127.21837891 36.32421875 126.47363281 C34.5132095 122.95657764 32.85687324 119.37068436 31.1953125 115.78125 C28.47639345 109.95249146 25.69039074 104.16217614 22.8203125 98.40625 C22.48644531 97.73400391 22.15257812 97.06175781 21.80859375 96.36914062 C20.39472603 93.55013277 18.94751499 90.90955373 17.1953125 88.28125 C15.5453125 88.28125 13.8953125 88.28125 12.1953125 88.28125 Z " fill="#000605" transform="translate(115.8046875,10.71875)"/>
<path d="M0 0 C8.25 0 16.5 0 25 0 C22.29489538 6.76276154 19.52655873 13.17629773 16.234375 19.62890625 C15.3350948 21.42340607 14.43668277 23.21834117 13.5390625 25.01367188 C12.14285371 27.79797197 10.74150627 30.5791367 9.32519531 33.35327148 C7.94506825 36.06218871 6.58811379 38.7817264 5.234375 41.50390625 C4.59698395 42.73241051 4.59698395 42.73241051 3.94671631 43.98573303 C1.37868145 49.20719702 -0.275334 54.15339785 1 60 C2.11416439 62.29797072 2.11416439 62.29797072 4 64 C6.35333664 64.60474082 6.35333664 64.60474082 9.03466797 64.51757812 C10.57173904 64.53649109 10.57173904 64.53649109 12.13986206 64.55578613 C13.24612946 64.54768921 14.35239685 64.53959229 15.4921875 64.53125 C17.19932419 64.53699036 17.19932419 64.53699036 18.94094849 64.54284668 C21.35012698 64.54557052 23.75933482 64.53817649 26.16845703 64.52148438 C29.85386346 64.50012251 33.53731147 64.52125153 37.22265625 64.546875 C39.5625043 64.54423104 41.90235114 64.53910464 44.2421875 64.53125 C45.34440643 64.53934692 46.44662537 64.54744385 47.58224487 64.55578613 C51.94097678 64.50248185 55.11995272 64.44277335 59.04736328 62.46679688 C64.05061728 56.1461069 64.43236105 49.59505712 64.40625 41.76953125 C64.42250427 40.33935921 64.42250427 40.33935921 64.43908691 38.8802948 C64.48468703 34.83243438 64.49645062 30.78464354 64.51123047 26.73657227 C64.52692754 23.76816082 64.5599132 20.80028237 64.59375 17.83203125 C64.59072876 16.92048782 64.58770752 16.0089444 64.58459473 15.06977844 C64.65402777 9.20043853 65.32784555 5.66298707 69.62341309 1.38215637 C72.9451352 -0.54966415 76.02700982 -0.32473688 79.75 -0.1875 C80.44738281 -0.17396484 81.14476563 -0.16042969 81.86328125 -0.14648438 C83.57585541 -0.1112945 85.28802941 -0.05749155 87 0 C87.09306696 8.69331939 87.16394962 17.3864648 87.20724869 26.0801754 C87.22804004 30.11792085 87.25620073 34.1553231 87.30175781 38.19287109 C87.34552046 42.09623162 87.36920052 45.999264 87.37950897 49.9028511 C87.38684625 51.38507877 87.40117301 52.8672904 87.42292023 54.34937668 C87.57786468 65.35611591 86.66096339 75.23826231 78.71533203 83.54469299 C70.67964514 90.36226022 60.74313948 89.60448104 50.8125 89.56640625 C49.14298152 89.57165025 47.47346601 89.57792955 45.80395508 89.58518982 C42.31740299 89.59555684 38.83126001 89.59108551 35.34472656 89.57641602 C30.89613323 89.5592223 26.44883091 89.58274922 22.00038147 89.61790562 C18.55659572 89.63995574 15.11311539 89.63842005 11.66928101 89.6301403 C10.02996402 89.62932516 8.39062361 89.63610429 6.75137329 89.65091133 C-3.97703058 89.73298991 -11.81574709 89.06904729 -19.8125 81.25 C-25.40415956 72.94239151 -27.19639013 66.07614041 -26 56 C-23.17081581 46.59477126 -18.58873058 37.83583363 -14.125 29.125 C-12.88217223 26.67611595 -11.64401559 24.22488331 -10.40625 21.7734375 C-9.8184375 20.61038086 -9.230625 19.44732422 -8.625 18.24902344 C-5.61269368 12.22622108 -2.79647261 6.12560666 0 0 Z " fill="#00E0A7" transform="translate(37,99)"/>
<path d="M0 0 C1.48928563 0.00747424 2.9785812 0.01316157 4.46788025 0.01715088 C8.3593635 0.03231448 12.25023533 0.07151374 16.14147949 0.1159668 C20.12353244 0.15712181 24.10568562 0.17520476 28.08789062 0.1953125 C35.88051737 0.23801933 43.67251648 0.3082905 51.46484375 0.390625 C51.46484375 8.310625 51.46484375 16.230625 51.46484375 24.390625 C47.63632813 24.41640625 43.8078125 24.4421875 39.86328125 24.46875 C36.14982797 24.50717708 32.43651322 24.55233546 28.72314453 24.59814453 C26.14508696 24.62634659 23.56694304 24.64756487 20.98876953 24.66162109 C17.279824 24.68306009 13.57191582 24.72971896 9.86328125 24.78125 C8.71306488 24.78247864 7.56284851 24.78370728 6.3777771 24.78497314 C-1.84215834 24.91228465 -1.84215834 24.91228465 -8.53515625 29.390625 C-12.01612091 35.17219294 -11.94803808 40.55516669 -11.90625 47.1796875 C-11.92362197 49.27604339 -11.94120645 51.37239752 -11.95898438 53.46875 C-11.9690773 56.75165928 -11.9726465 60.03445861 -11.97094727 63.31738281 C-11.97451419 66.50098155 -12.00183273 69.6837385 -12.03125 72.8671875 C-12.02306747 73.84748932 -12.01488495 74.82779114 -12.00645447 75.83779907 C-12.0526357 80.06223496 -12.14251112 82.69790553 -14.25415039 86.42333984 C-18.67608326 90.23709721 -22.61756672 90.63138438 -28.34765625 90.515625 C-29.50910156 90.49757813 -30.67054687 90.47953125 -31.8671875 90.4609375 C-32.74761719 90.43773437 -33.62804687 90.41453125 -34.53515625 90.390625 C-34.62821393 81.56692072 -34.69910126 72.74338776 -34.74240494 63.91929817 C-34.76319826 59.82102129 -34.79136271 55.72308241 -34.83691406 51.625 C-34.88066945 47.66328528 -34.9043553 43.70189379 -34.91466522 39.7399559 C-34.92200377 38.23540033 -34.93633308 36.7308606 -34.95807648 35.22644424 C-35.11172544 24.14557332 -34.24127193 14.22392612 -26.25694275 5.84661865 C-18.58704944 -0.63927027 -9.5014709 -0.14105169 0 0 Z " fill="#00DFA7" transform="translate(110.53515625,70.609375)"/>
<path d="M0 0 C8.25 0 16.5 0 25 0 C40.87178687 32.65887925 40.87178687 32.65887925 46.4375 44.3125 C46.79577881 45.05604736 47.15405762 45.79959473 47.52319336 46.56567383 C51.42057088 54.76825984 52.50282733 62.98549932 49.75 71.8125 C46.6803735 79.72594078 42.29698399 83.8744492 35 88 C31.92162206 89.02612598 29.83425704 89.12090219 26.6105957 89.11352539 C25.50968094 89.11344986 24.40876617 89.11337433 23.27449036 89.11329651 C22.08691635 89.10813522 20.89934235 89.10297394 19.67578125 89.09765625 C18.45924362 89.0962413 17.24270599 89.09482635 15.98930359 89.09336853 C12.0970109 89.08776312 8.20477536 89.07520967 4.3125 89.0625 C1.67643312 89.0574857 -0.95963466 89.05292267 -3.59570312 89.04882812 C-10.06382164 89.03779193 -16.53190674 89.0210485 -23 89 C-22.59297852 88.46238037 -22.18595703 87.92476074 -21.76660156 87.37084961 C-21.2300293 86.65936768 -20.69345703 85.94788574 -20.140625 85.21484375 C-19.34446777 84.16091431 -19.34446777 84.16091431 -18.53222656 83.08569336 C-15.32117876 78.71475943 -13.00869821 74.64703745 -11.890625 69.27734375 C-11.72079102 68.47417725 -11.55095703 67.67101074 -11.37597656 66.84350586 C-11.2519043 66.23514893 -11.12783203 65.62679199 -11 65 C-10.04633545 64.9906543 -9.0926709 64.98130859 -8.11010742 64.97167969 C-4.57057038 64.93179567 -1.03190407 64.86604341 2.50708008 64.79248047 C4.03854178 64.76426122 5.57014939 64.74305131 7.10180664 64.72900391 C9.30430849 64.70758574 11.50505459 64.66094862 13.70703125 64.609375 C14.39150833 64.60814636 15.07598541 64.60691772 15.78120422 64.60565186 C18.90143157 64.50958221 20.59238928 64.37701149 22.92529297 62.21923828 C24.76943568 58.41113804 24.66600922 55.13558465 24 51 C22.72519862 47.43803383 20.9949371 44.19281926 19.1875 40.875 C18.1802698 38.94636707 17.17513068 37.01664092 16.171875 35.0859375 C15.65044922 34.09303711 15.12902344 33.10013672 14.59179688 32.07714844 C11.93259042 26.93655976 9.4325991 21.72171522 6.9375 16.5 C6.240802 15.05923096 6.240802 15.05923096 5.5300293 13.58935547 C5.09601807 12.68330566 4.66200684 11.77725586 4.21484375 10.84375 C3.83448975 10.05162109 3.45413574 9.25949219 3.06225586 8.44335938 C1.8686037 5.69776737 0.94673549 2.84020648 0 0 Z " fill="#00E0A7" transform="translate(138,99)"/>
<path d="M0 0 C7.84911969 5.57824593 11.808695 12.67096378 15.69140625 21.3125 C16.63285261 23.34693863 17.57556967 25.38078969 18.51953125 27.4140625 C18.97779297 28.40954102 19.43605469 29.40501953 19.90820312 30.43066406 C22.15494636 35.24208589 24.55784102 39.97233135 26.96850586 44.703125 C29.25390625 49.2146276 29.25390625 49.2146276 29.25390625 50.3125 C21.00390625 50.3125 12.75390625 50.3125 4.25390625 50.3125 C3.05765625 47.899375 1.86140625 45.48625 0.62890625 43 C-0.47618749 40.79476304 -1.58664785 38.59234364 -2.69873047 36.390625 C-3.61839152 34.56588028 -4.52870592 32.73643115 -5.4375 30.90625 C-5.93121094 29.9471875 -6.42492187 28.988125 -6.93359375 28 C-7.57361328 26.73736328 -7.57361328 26.73736328 -8.2265625 25.44921875 C-10.08979946 22.82919146 -11.86804044 21.70952741 -14.74609375 20.3125 C-18.64793261 19.82477014 -20.83412199 19.7526186 -24.21484375 21.828125 C-27.48054773 25.03335298 -28.95503755 28.33907066 -30.74609375 32.5 C-33.46662053 38.6543624 -36.45752176 44.39307042 -39.74609375 50.3125 C-47.99609375 50.3125 -56.24609375 50.3125 -64.74609375 50.3125 C-60.08976687 39.44773728 -55.1836466 28.80754559 -49.74609375 18.3125 C-49.03259766 16.92998047 -49.03259766 16.92998047 -48.3046875 15.51953125 C-43.48865296 6.50645093 -37.17787155 -0.8660472 -27.15625 -4.16796875 C-17.00954785 -6.35518331 -9.04922228 -4.61542388 0 0 Z " fill="#00E0A7" transform="translate(117.74609375,16.6875)"/>
<path d="M0 0 C15.84 0 31.68 0 48 0 C46.35 1.65 44.7 3.3 43 5 C41.24736294 7.31921801 41.24736294 7.31921801 39.8125 9.75 C39.32394531 10.52859375 38.83539063 11.3071875 38.33203125 12.109375 C36.47198961 15.87771841 36.47198961 15.87771841 35 24 C23.45 24 11.9 24 0 24 C0 16.08 0 8.16 0 0 Z " fill="#00DFA7" transform="translate(38,71)"/>
</svg>
